<svg xmlns="http://www.w3.org/2000/svg" version="1.1" xmlns:xlink="http://www.w3.org/1999/xlink" xmlns:svgjs="http://svgjs.dev/svgjs" width="1000" height="623" viewBox="0 0 1000 623"><g transform="matrix(1,0,0,1,-0.6060606060606233,0.2522267206477409)"><svg viewBox="0 0 396 247" data-background-color="#ffffff" preserveAspectRatio="xMidYMid meet" height="623" width="1000" xmlns="http://www.w3.org/2000/svg" xmlns:xlink="http://www.w3.org/1999/xlink"><defs></defs><g id="tight-bounds" transform="matrix(1,0,0,1,0.2400000000000091,-0.09999999999999432)"><svg viewBox="0 0 395.52 247.2" height="247.2" width="395.52"><g><svg></svg></g><g><svg viewBox="0 0 395.52 247.2" height="247.2" width="395.52"><g transform="matrix(1,0,0,1,75.54432,110.69549200333611)"><svg viewBox="0 0 244.43135999999998 25.809015993327773" height="25.809015993327773" width="244.43135999999998"><g><svg viewBox="0 0 244.43135999999998 25.809015993327773" height="25.809015993327773" width="244.43135999999998"><g><svg viewBox="0 0 244.43135999999998 25.809015993327773" height="25.809015993327773" width="244.43135999999998"><g><svg viewBox="0 0 244.43135999999998 25.809015993327773" height="25.809015993327773" width="244.43135999999998"><g><svg viewBox="0 0 244.43135999999998 25.809015993327773" height="25.809015993327773" width="244.43135999999998"><g><svg viewBox="0 0 244.43135999999998 25.809015993327773" height="25.809015993327773" width="244.43135999999998"><g transform="matrix(1,0,0,1,0,0)"><svg width="244.43135999999998" viewBox="2.490000009536743 -30.65999984741211 292.70001220703125 30.899999618530273" height="25.809015993327773" data-palette-color="#0023ff"><path d="M15.84 0.24Q9.33 0.24 5.91-3.71 2.49-7.67 2.49-15.28L2.49-15.28Q2.49-22.88 5.9-26.77 9.3-30.66 15.84-30.66L15.84-30.66Q22.41-30.66 25.83-26.77 29.25-22.88 29.25-15.28L29.25-15.28Q29.25-7.67 25.83-3.71 22.41 0.24 15.84 0.24L15.84 0.24ZM15.84-3.05Q20.43-3.05 22.88-6.19 25.32-9.33 25.32-15.28L25.32-15.28Q25.32-21.24 22.89-24.3 20.46-27.37 15.84-27.37L15.84-27.37Q11.25-27.37 8.84-24.3 6.42-21.24 6.42-15.28L6.42-15.28Q6.42-9.3 8.84-6.18 11.25-3.05 15.84-3.05L15.84-3.05ZM42.33 0.24Q39.94 0.24 37.88-0.28 35.81-0.81 34.58-1.55 33.35-2.29 33.35-2.91L33.35-2.91Q33.35-3.25 33.63-3.81 33.91-4.37 34.27-4.81 34.64-5.25 34.86-5.25L34.86-5.25Q35.06-5.25 35.72-4.86L35.72-4.86Q37.23-4.08 38.72-3.56 40.21-3.05 42.33-3.05L42.33-3.05Q43.99-3.05 45.29-3.69 46.58-4.32 47.3-5.48 48.02-6.64 48.02-8.15L48.02-8.15Q48.02-9.77 47.15-10.83 46.29-11.89 45.05-12.51 43.82-13.13 41.48-14.06L41.48-14.06Q38.94-15.04 37.46-15.88 35.98-16.72 34.95-18.33 33.91-19.95 33.91-22.61L33.91-22.61Q33.91-24.93 35.1-26.77 36.3-28.61 38.5-29.64 40.7-30.66 43.55-30.66L43.55-30.66Q44.85-30.66 46.51-30.31 48.17-29.96 49.35-29.35 50.53-28.74 50.53-28L50.53-28Q50.53-27.69 50.28-27.14 50.02-26.59 49.68-26.15 49.34-25.71 49.14-25.71L49.14-25.71Q48.92-25.71 48.26-26.07L48.26-26.07Q47.17-26.66 46.09-27.01 45.02-27.37 43.48-27.37L43.48-27.37Q40.96-27.37 39.41-26.07 37.86-24.78 37.86-22.46L37.86-22.46Q37.86-21.07 38.55-20.17 39.23-19.26 40.28-18.73 41.33-18.19 43.21-17.48L43.21-17.48Q43.33-17.46 43.77-17.29L43.77-17.29Q46.36-16.28 48.01-15.34 49.66-14.4 50.82-12.65 51.98-10.89 51.98-8.15L51.98-8.15Q51.98-5.59 50.79-3.69 49.61-1.78 47.42-0.77 45.24 0.24 42.33 0.24L42.33 0.24ZM69.89 0.24Q62.76 0.24 59.35-3.52 55.93-7.28 55.93-15.21L55.93-15.21Q55.93-30.66 69.97-30.66L69.97-30.66Q72.02-30.66 73.95-30.24 75.87-29.81 77.07-29.17 78.27-28.54 78.27-27.95L78.27-27.95Q78.27-27.59 78.01-26.98 77.75-26.37 77.41-25.9 77.07-25.44 76.8-25.44L76.8-25.44Q76.68-25.44 76.12-25.76L76.12-25.76Q74.85-26.44 73.46-26.9 72.07-27.37 70.06-27.37L70.06-27.37Q64.81-27.37 62.34-24.45 59.86-21.53 59.86-15.16L59.86-15.16Q59.86-8.94 62.31-5.99 64.77-3.05 69.89-3.05L69.89-3.05Q72.04-3.05 73.58-3.56 75.12-4.08 76.53-4.83L76.53-4.83Q77.22-5.2 77.36-5.2L77.36-5.2Q77.63-5.2 77.99-4.74 78.34-4.27 78.61-3.7 78.88-3.13 78.88-2.88L78.88-2.88Q78.88-2.27 77.64-1.53 76.41-0.78 74.35-0.27 72.29 0.24 69.89 0.24L69.89 0.24ZM82.71 0.07Q81.73 0.07 81.29-0.11 80.85-0.29 80.85-0.66L80.85-0.66Q80.85-0.83 80.97-1.25L80.97-1.25 91.25-29.79Q91.5-30.49 92.99-30.49L92.99-30.49 94.26-30.49Q95.74-30.49 95.99-29.79L95.99-29.79 106.27-1.22Q106.39-0.95 106.39-0.66L106.39-0.66Q106.39 0.07 104.56 0.07L104.56 0.07 104.19 0.07Q102.68 0.07 102.43-0.61L102.43-0.61 99.89-7.74 87.15-7.74 84.66-0.61Q84.44 0.07 82.93 0.07L82.93 0.07 82.71 0.07ZM88.35-11.04L98.72-11.04 94.18-23.95Q93.99-24.49 93.86-25.17 93.74-25.85 93.64-26.49L93.64-26.49 93.55-26.49Q93.25-24.85 92.89-23.95L92.89-23.95 88.35-11.04ZM112.88 0.07Q111.12 0.07 111.12-0.88L111.12-0.88 111.12-29.08Q111.12-29.76 111.44-30.07 111.76-30.37 112.44-30.37L112.44-30.37 119.74-30.37Q124.94-30.37 127.57-28.54 130.19-26.71 130.19-22.71L130.19-22.71Q130.19-20 128.88-18.15 127.58-16.31 125.21-15.38L125.21-15.38 125.21-15.21Q126.48-14.77 127.3-13.51 128.12-12.26 129.12-9.79L129.12-9.79 132.51-1.22Q132.63-0.78 132.63-0.61L132.63-0.61Q132.63 0.07 130.8 0.07L130.8 0.07 130.36 0.07Q129.7 0.07 129.23-0.11 128.75-0.29 128.63-0.61L128.63-0.61 125.33-9.13Q124.7-10.79 123.84-11.72 122.99-12.65 121.82-13.01 120.64-13.38 118.86-13.38L118.86-13.38 114.96-13.38 114.96-0.88Q114.96 0.07 113.22 0.07L113.22 0.07 112.88 0.07ZM114.96-16.67L120.67-16.67Q122.21-16.67 123.49-17.41 124.77-18.14 125.51-19.37 126.26-20.61 126.26-22L126.26-22Q126.26-24.56 124.7-25.82 123.13-27.08 120.38-27.08L120.38-27.08 114.96-27.08 114.96-16.67ZM159.29 0.24Q155.5 0.24 152.84-0.94 150.18-2.12 148.81-4.37 147.45-6.62 147.45-9.74L147.45-9.74 147.45-29.52Q147.45-30.49 149.18-30.49L149.18-30.49 149.52-30.49Q151.25-30.49 151.25-29.52L151.25-29.52 151.25-9.59Q151.25-7.69 152.3-6.2 153.35-4.71 155.19-3.88 157.02-3.05 159.29-3.05L159.29-3.05Q161.58-3.05 163.41-3.89 165.24-4.74 166.28-6.23 167.32-7.71 167.32-9.59L167.32-9.59 167.32-29.52Q167.32-30.49 169.05-30.49L169.05-30.49 169.42-30.49Q171.13-30.49 171.13-29.52L171.13-29.52 171.13-9.74Q171.13-6.62 169.76-4.37 168.39-2.12 165.73-0.94 163.07 0.24 159.29 0.24L159.29 0.24ZM180.4 0.07Q179.47 0.07 179.06-0.16 178.64-0.39 178.64-0.88L178.64-0.88 178.64-29.52Q178.64-30.49 180.4-30.49L180.4-30.49 181.94-30.49Q183.38-30.49 183.77-29.69L183.77-29.69 191.97-15.45 193.1-12.72 194.22-15.21 202.45-29.69Q202.86-30.49 204.25-30.49L204.25-30.49 205.7-30.49Q207.43-30.49 207.43-29.52L207.43-29.52 207.43-0.88Q207.43 0.07 205.7 0.07L205.7 0.07 205.4 0.07Q204.47 0.07 204.06-0.16 203.64-0.39 203.64-0.88L203.64-0.88 203.64-24.24 203.57-24.05 194.93-9.03Q194.76-8.74 194.54-8.61 194.32-8.47 193.98-8.47L193.98-8.47 192.24-8.47Q191.58-8.47 191.27-9.03L191.27-9.03 182.43-24.49 182.43-0.88Q182.43 0.07 180.7 0.07L180.7 0.07 180.4 0.07ZM213.7 0.07Q212.72 0.07 212.28-0.11 211.85-0.29 211.85-0.66L211.85-0.66Q211.85-0.83 211.97-1.25L211.97-1.25 222.25-29.79Q222.49-30.49 223.98-30.49L223.98-30.49 225.25-30.49Q226.74-30.49 226.98-29.79L226.98-29.79 237.26-1.22Q237.38-0.95 237.38-0.66L237.38-0.66Q237.38 0.07 235.55 0.07L235.55 0.07 235.19 0.07Q233.67 0.07 233.43-0.61L233.43-0.61 230.89-7.74 218.14-7.74 215.65-0.61Q215.43 0.07 213.92 0.07L213.92 0.07 213.7 0.07ZM219.34-11.04L229.72-11.04 225.18-23.95Q224.98-24.49 224.86-25.17 224.74-25.85 224.64-26.49L224.64-26.49 224.54-26.49Q224.25-24.85 223.88-23.95L223.88-23.95 219.34-11.04ZM243.58 0.07Q242.65 0.07 242.24-0.16 241.82-0.39 241.82-0.88L241.82-0.88 241.82-29.52Q241.82-30.49 243.58-30.49L243.58-30.49 244.48-30.49Q245.17-30.49 245.57-30.3 245.97-30.1 246.29-29.66L246.29-29.66 260.16-8.74 261.45-6.3 261.45-29.52Q261.45-30.49 263.16-30.49L263.16-30.49 263.5-30.49Q265.21-30.49 265.21-29.52L265.21-29.52 265.21-0.88Q265.21-0.39 264.8-0.16 264.38 0.07 263.5 0.07L263.5 0.07 262.62 0.07Q262.01 0.07 261.65-0.07 261.28-0.22 261.09-0.54L261.09-0.54 246.78-22.12 245.61-24.37 245.61-0.88Q245.61 0.07 243.87 0.07L243.87 0.07 243.58 0.07ZM271.51 0.07Q270.53 0.07 270.09-0.11 269.65-0.29 269.65-0.66L269.65-0.66Q269.65-0.83 269.77-1.25L269.77-1.25 280.05-29.79Q280.3-30.49 281.79-30.49L281.79-30.49 283.06-30.49Q284.55-30.49 284.79-29.79L284.79-29.79 295.07-1.22Q295.19-0.95 295.19-0.66L295.19-0.66Q295.19 0.07 293.36 0.07L293.36 0.07 292.99 0.07Q291.48 0.07 291.23-0.61L291.23-0.61 288.7-7.74 275.95-7.74 273.46-0.61Q273.24 0.07 271.73 0.07L271.73 0.07 271.51 0.07ZM277.15-11.04L287.52-11.04 282.98-23.95Q282.79-24.49 282.67-25.17 282.54-25.85 282.45-26.49L282.45-26.49 282.35-26.49Q282.06-24.85 281.69-23.95L281.69-23.95 277.15-11.04Z" opacity="1" transform="matrix(1,0,0,1,0,0)" fill="#0023ff" class="undefined-text-0" data-fill-palette-color="primary" id="text-0"></path></svg></g></svg></g></svg></g></svg></g></svg></g></svg></g></svg></g><path d="M223.11 104.695L223.11 39.806 390.698 39.806 390.698 207.394 223.11 207.394 223.11 142.505 225.438 142.505 225.438 205.066 388.37 205.066 388.37 42.134 225.438 42.134 225.438 104.695Z" fill="#0023ff" stroke="transparent" data-fill-palette-color="primary"></path></svg></g></svg><rect width="395.52" height="247.2" fill="none" stroke="none" visibility="hidden"></rect></g></svg></g></svg>