<?xml version="1.0" encoding="UTF-8"?>
<svg version="1.1" viewBox="0 0 1000 623" xmlns="http://www.w3.org/2000/svg">
<g transform="translate(-.60606 .25223)">
<svg width="1e3" height="623" data-background-color="#ffffff" viewBox="0 0 396 247" xmlns="http://www.w3.org/2000/svg" xmlns:xlink="http://www.w3.org/1999/xlink">
<g transform="translate(.24 -.1)">
<svg width="395.52" height="247.2" viewBox="0 0 395.52 247.2">
<svg/>
<svg width="395.52" height="247.2" viewBox="0 0 395.52 247.2">
<g transform="translate(75.544 110.7)">
<svg width="244.43" height="25.809" viewBox="0 0 244.43135999999998 25.809015993327773">
<svg width="244.43" height="25.809" viewBox="0 0 244.43135999999998 25.809015993327773">
<svg width="244.43" height="25.809" viewBox="0 0 244.43135999999998 25.809015993327773">
<svg width="244.43" height="25.809" viewBox="0 0 244.43135999999998 25.809015993327773">
<svg width="244.43" height="25.809" viewBox="0 0 244.43135999999998 25.809015993327773">
<svg width="244.43" height="25.809" viewBox="0 0 244.43135999999998 25.809015993327773">
<g>
<svg width="244.43" height="25.809" data-palette-color="#0023ff" viewBox="2.490000009536743 -30.65999984741211 292.70001220703125 30.899999618530273">
<path class="undefined-text-0" d="m15.84 0.24q-6.51 0-9.93-3.95-3.42-3.96-3.42-11.57 0-7.6 3.41-11.49 3.4-3.89 9.94-3.89 6.57 0 9.99 3.89t3.42 11.49q0 7.61-3.42 11.57-3.42 3.95-9.99 3.95zm0-3.29q4.59 0 7.04-3.14 2.44-3.14 2.44-9.09 0-5.96-2.43-9.02-2.43-3.07-7.05-3.07-4.59 0-7 3.07-2.42 3.06-2.42 9.02 0 5.98 2.42 9.1 2.41 3.13 7 3.13zm26.49 3.29q-2.39 0-4.45-0.52-2.07-0.53-3.3-1.27t-1.23-1.36q0-0.34 0.28-0.9t0.64-1q0.37-0.44 0.59-0.44 0.2 0 0.86 0.39 1.51 0.78 3 1.3 1.49 0.51 3.61 0.51 1.66 0 2.96-0.64 1.29-0.63 2.01-1.79t0.72-2.67q0-1.62-0.87-2.68-0.86-1.06-2.1-1.68-1.23-0.62-3.57-1.55-2.54-0.98-4.02-1.82t-2.51-2.45q-1.04-1.62-1.04-4.28 0-2.32 1.19-4.16 1.2-1.84 3.4-2.87 2.2-1.02 5.05-1.02 1.3 0 2.96 0.35t2.84 0.96 1.18 1.35q0 0.31-0.25 0.86-0.26 0.55-0.6 0.99t-0.54 0.44q-0.22 0-0.88-0.36-1.09-0.59-2.17-0.94-1.07-0.36-2.61-0.36-2.52 0-4.07 1.3-1.55 1.29-1.55 3.61 0 1.39 0.69 2.29 0.68 0.91 1.73 1.44 1.05 0.54 2.93 1.25 0.12 0.02 0.56 0.19 2.59 1.01 4.24 1.95t2.81 2.69q1.16 1.76 1.16 4.5 0 2.56-1.19 4.46-1.18 1.91-3.37 2.92-2.18 1.01-5.09 1.01zm27.56 0q-7.13 0-10.54-3.76-3.42-3.76-3.42-11.69 0-15.45 14.04-15.45 2.05 0 3.98 0.42 1.92 0.43 3.12 1.07 1.2 0.63 1.2 1.22 0 0.36-0.26 0.97t-0.6 1.08q-0.34 0.46-0.61 0.46-0.12 0-0.68-0.32-1.27-0.68-2.66-1.14-1.39-0.47-3.4-0.47-5.25 0-7.72 2.92-2.48 2.92-2.48 9.29 0 6.22 2.45 9.17 2.46 2.94 7.58 2.94 2.15 0 3.69-0.51 1.54-0.52 2.95-1.27 0.69-0.37 0.83-0.37 0.27 0 0.63 0.46 0.35 0.47 0.62 1.04t0.27 0.82q0 0.61-1.24 1.35-1.23 0.75-3.29 1.26t-4.46 0.51zm12.82-0.17q-0.98 0-1.42-0.18t-0.44-0.55q0-0.17 0.12-0.59l10.28-28.54q0.25-0.7 1.74-0.7h1.27q1.48 0 1.73 0.7l10.28 28.57q0.12 0.27 0.12 0.56 0 0.73-1.83 0.73h-0.37q-1.51 0-1.76-0.68l-2.54-7.13h-12.74l-2.49 7.13q-0.22 0.68-1.73 0.68h-0.22zm5.64-11.11h10.37l-4.54-12.91q-0.19-0.54-0.32-1.22-0.12-0.68-0.22-1.32h-0.09q-0.3 1.64-0.66 2.54l-4.54 12.91zm24.53 11.11q-1.76 0-1.76-0.95v-28.2q0-0.68 0.32-0.99 0.32-0.3 1-0.3h7.3q5.2 0 7.83 1.83 2.62 1.83 2.62 5.83 0 2.71-1.31 4.56-1.3 1.84-3.67 2.77v0.17q1.27 0.44 2.09 1.7 0.82 1.25 1.82 3.72l3.39 8.57q0.12 0.44 0.12 0.61 0 0.68-1.83 0.68h-0.44q-0.66 0-1.13-0.18-0.48-0.18-0.6-0.5l-3.3-8.52q-0.63-1.66-1.49-2.59-0.85-0.93-2.02-1.29-1.18-0.37-2.96-0.37h-3.9v12.5q0 0.95-1.74 0.95h-0.34zm2.08-16.74h5.71q1.54 0 2.82-0.74 1.28-0.73 2.02-1.96 0.75-1.24 0.75-2.63 0-2.56-1.56-3.82-1.57-1.26-4.32-1.26h-5.42v10.41zm44.33 16.91q-3.79 0-6.45-1.18t-4.03-3.43q-1.36-2.25-1.36-5.37v-19.78q0-0.97 1.73-0.97h0.34q1.73 0 1.73 0.97v19.93q0 1.9 1.05 3.39t2.89 2.32q1.83 0.83 4.1 0.83 2.29 0 4.12-0.84 1.83-0.85 2.87-2.34 1.04-1.48 1.04-3.36v-19.93q0-0.97 1.73-0.97h0.37q1.71 0 1.71 0.97v19.78q0 3.12-1.37 5.37t-4.03 3.43-6.44 1.18zm21.11-0.17q-0.93 0-1.34-0.23-0.42-0.23-0.42-0.72v-28.64q0-0.97 1.76-0.97h1.54q1.44 0 1.83 0.8l8.2 14.24 1.13 2.73 1.12-2.49 8.23-14.48q0.41-0.8 1.8-0.8h1.45q1.73 0 1.73 0.97v28.64q0 0.95-1.73 0.95h-0.3q-0.93 0-1.34-0.23-0.42-0.23-0.42-0.72v-23.36l-0.07 0.19-8.64 15.02q-0.17 0.29-0.39 0.42-0.22 0.14-0.56 0.14h-1.74q-0.66 0-0.97-0.56l-8.84-15.46v23.61q0 0.95-1.73 0.95h-0.3zm33.3 0q-0.98 0-1.42-0.18-0.43-0.18-0.43-0.55 0-0.17 0.12-0.59l10.28-28.54q0.24-0.7 1.73-0.7h1.27q1.49 0 1.73 0.7l10.28 28.57q0.12 0.27 0.12 0.56 0 0.73-1.83 0.73h-0.36q-1.52 0-1.76-0.68l-2.54-7.13h-12.75l-2.49 7.13q-0.22 0.68-1.73 0.68h-0.22zm5.64-11.11h10.38l-4.54-12.91q-0.2-0.54-0.32-1.22t-0.22-1.32h-0.1q-0.29 1.64-0.66 2.54l-4.54 12.91zm24.24 11.11q-0.93 0-1.34-0.23-0.42-0.23-0.42-0.72v-28.64q0-0.97 1.76-0.97h0.9q0.69 0 1.09 0.19 0.4 0.2 0.72 0.64l13.87 20.92 1.29 2.44v-23.22q0-0.97 1.71-0.97h0.34q1.71 0 1.71 0.97v28.64q0 0.49-0.41 0.72-0.42 0.23-1.3 0.23h-0.88q-0.61 0-0.97-0.14-0.37-0.15-0.56-0.47l-14.31-21.58-1.17-2.25v23.49q0 0.95-1.74 0.95h-0.29zm27.93 0q-0.98 0-1.42-0.18t-0.44-0.55q0-0.17 0.12-0.59l10.28-28.54q0.25-0.7 1.74-0.7h1.27q1.49 0 1.73 0.7l10.28 28.57q0.12 0.27 0.12 0.56 0 0.73-1.83 0.73h-0.37q-1.51 0-1.76-0.68l-2.53-7.13h-12.75l-2.49 7.13q-0.22 0.68-1.73 0.68h-0.22zm5.64-11.11h10.37l-4.54-12.91q-0.19-0.54-0.31-1.22-0.13-0.68-0.22-1.32h-0.1q-0.29 1.64-0.66 2.54l-4.54 12.91z"  data-fill-palette-color="primary"/>
</svg>
</g>
</svg>
</svg>
</svg>
</svg>
</svg>
</svg>
</g>
<path d="m223.11 104.7v-64.889h167.59v167.59h-167.59v-64.889h2.328v62.561h162.93v-162.93h-162.93v62.561z"  stroke="transparent" data-fill-palette-color="primary"/>
</svg>
</svg>
<rect width="395.52" height="247.2" fill="none" visibility="hidden"/>
</g>
</svg>
</g>
</svg>
